<svg id="formeDeroulement" xmlns="http://www.w3.org/2000/svg">
    <defs>
        <clipPath id="formeDeroulementHaut" clipPathUnits="objectBoundingBox">
            <polygon points="0 1, .05 0, .1 1, .15 0, .2 1, .25 0, .3 1, .35 0, .4 1, .45 0, .5 1, .55 0, .6 1, .65 0, .7 1, .75 0, .8 1, .85 0, .9 1, .95 0, 1 1" />
        </clipPath>

        <clipPath id="formeDeroulementBas" clipPathUnits="objectBoundingBox">
            <polygon points="0 0, .05 1, .1 0, .15 1, .2 0, .25 1, .3 0, .35 1, .4 0, .45 1, .5 0, .55 1, .6 0, .65 1, .7 0, .75 1, .8 0, .85 1, .9 0, .95 1, 1 0" />
        </clipPath>

        <linearGradient id="formeDeroulementGradient" x1="0" x2="0" y1="0" y2="1">
            <stop offset="70%"  stop-color="white"/>
            <stop offset="100%" stop-color="black"/>
        </linearGradient>

        <mask id="formeDeroulementBlur" maskUnits="objectBoundingBox" 
            maskContentUnits="objectBoundingBox">
            <rect y="0" x="0" width="1" height="1" fill="url(#formeDeroulementGradient)" />
        </mask>
    </defs>	
</svg>