<svg version="1" xmlns="http://www.w3.org/2000/svg" width="666.667" height="666.667" viewBox="0 0 500.000000 500.000000"><path d="M206 2c-20.8 3.5-47.7 12.3-67.1 22.1-24.7 12.3-45.3 27.3-65.5 47.5-33 32.9-54.1 69.7-65.9 114.9C2 207.5 0 224.1 0 249c0 24.2 2.3 42.5 8 64 25.4 95.7 105.7 167.8 203.7 183 7.2 1.1 15.4 2 18 2 2.7 0 7.6.5 10.9 1.1 10.3 1.9 47.8-2.3 69.4-7.8 44.5-11.4 82.9-33.2 115.4-65.7 42.3-42.3 67.5-97.1 72.7-158.1 1.4-15.6 1.4-21.4.1-36.5-1.5-17.5-3.8-31.6-7.3-45C465.7 89.9 386.5 17.2 290 1.5c-14.3-2.3-69.5-2-84 .5zm55.5 14.7l2.5.5v462.5l-3.1.7c-5.8 1.1-21.7.7-22.6-.6-.8-1.4-.6-461.5.2-462.8.5-.8 18.8-1.1 23-.3zm-59.7 156.5c-.3 141.6-.4 151.5-2 155.2-1.7 3.6-1.9 3.8-4 2.4-2.6-1.6-7.6-11.1-11.2-21.3-1.4-3.9-11.6-34.7-22.7-68.5-11-33.8-28.2-86-38.1-116-9.9-30-18.2-55.3-18.5-56.2-.9-3.1 25.4-20.9 44.3-29.8 17.2-8 42.6-16.7 49.7-16.9l2.8-.1-.3 151.2zM318 54.6c26.7 5 52.5 20 78.8 45.8 10.6 10.4 11.7 13.5 11.5 32.1-.1 11.1-.5 14.2-2.7 21.3-3 9.3-5.9 14.8-8.6 16.2-1.2.6-19.4 1-46.4 1h-44.4l-3-2.5c-1.8-1.5-3.3-4.1-4-6.7-.6-2.6-1.1-23.3-1.1-52.3-.2-46.6-.1-48.1 1.9-51.3 3.3-5.4 5.9-5.9 18-3.6zm131.5 77.9c13.6 22.5 24.2 53.7 28.4 83.6 2.9 20.3 3.3 40.1.6 30.6-.3-1.2-1-3.1-1.5-4.2s-2.1-5.4-3.6-9.5-3.1-8.1-3.7-8.8c-.5-.6-.7-1.2-.3-1.2.3 0-.4-1.7-1.6-3.8-1.2-2-2.8-5.1-3.6-6.7-.8-1.7-3.3-5-5.4-7.5-5.3-6-5.8-6.8-5.8-7.8 0-.5-2.7-3.5-6-6.6-3.3-3.2-6-6.1-6-6.5 0-.4-1.1-1.8-2.5-3.1-2.1-1.9-2.5-3.3-2.5-7.7 0-2.9.5-6.3 1.2-7.6 1.1-2.3 1.7-3.3 4.3-7.8 1-1.9 1.7-7.4 2.1-17.8.4-8.4 1.1-14.8 1.5-14.4.5.5 2.5 3.5 4.4 6.8zm-362.6 4.4c.7.5 9.1 24 18.6 52.2 9.5 28.3 34.7 103.1 56 166.4C205.7 486.9 202.1 476 201 476c-1.9 0-22.2-6.1-31.2-9.4-11.4-4.2-27.4-11.6-35-16.3-4.3-2.7-7.1-5.6-12.1-12.6-15.9-22.7-27.4-41.4-32.8-53.3-1.7-3.8-3.6-7.6-4.4-8.4-2.2-2.4-12.9-27.5-17.8-41.6-5.2-15.1-9.8-33-12.4-48.9-1.4-8.6-1.8-16.5-1.8-36 .1-25.2 1.2-36.6 4.9-50 .8-2.8 2.4-8.7 3.5-13.2 2.7-10.7 8-25 14.7-39.1 5.3-11.3 6.6-12.6 10.3-10.3zM409 206.3c0 .7 1 1.7 2.2 2.2 5.9 2.7 22.5 29.2 28.2 45.3 5.3 14.8 6.1 20.4 6 39.7-.1 15.9-.4 19.2-2.7 28.1-5.7 22.1-16.9 44.3-33.6 66.5-5.4 7.1-8.8 10.3-18.5 17.5-6.6 4.8-16.7 11.8-22.5 15.6-11.1 7.2-37.2 20.6-45.4 23.2-9.6 3.2-18 1.3-21.3-4.5-1.8-3.3-1.9-8-2.2-112.4-.2-60 0-111 .3-113.4.4-2.6 1.6-5.3 3-6.7l2.4-2.4H357c41.2 0 52 .3 52 1.3z"/></svg>